<svg width="22" height="22" viewBox="0 0 22 22" fill="none" xmlns="http://www.w3.org/2000/svg">
<path d="M0.268486 1.56485C-0.0894953 1.20687 -0.0894953 0.626466 0.268486 0.268485C0.626466 -0.0894952 1.20687 -0.0894952 1.56485 0.268485L11 9.70364L20.4352 0.268485C20.7931 -0.0894952 21.3735 -0.0894952 21.7315 0.268485C22.0895 0.626466 22.0895 1.20687 21.7315 1.56485L12.2964 11L21.7315 20.4352C22.0895 20.7931 22.0895 21.3735 21.7315 21.7315C21.3735 22.0895 20.7931 22.0895 20.4352 21.7315L11 12.2964L1.56485 21.7315C1.20687 22.0895 0.626467 22.0895 0.268487 21.7315C-0.0894941 21.3735 -0.0894941 20.7931 0.268487 20.4352L9.70364 11L0.268486 1.56485Z" fill="black"/>
</svg>
